<?xml version="1.0" encoding="UTF-8" standalone="no"?>
<svg
   viewBox="0 0 256 256"
   width="256"
   height="256"
   version="1.1"
   id="svg1"
   xmlns="http://www.w3.org/2000/svg"
   xmlns:svg="http://www.w3.org/2000/svg">
  <defs
     id="defs1" />
  <path
     fill="#000000"
     stroke-width="0.428758"
     d="m 99.275558,2.2606565 c -2.203485,-0.00274 -4.345914,0.6776752 -6.15588,2.1370935 -2.385809,2.3453087 -3.060511,4.1622565 -3.173803,7.528397 0.03181,1.625422 0.03181,1.625422 -0.187373,3.1085 -0.966618,1.266035 -1.974239,1.948622 -3.430101,2.57255 C 82.154894,13.304603 78.353314,9.1403074 72.490901,7.2500018 67.223164,6.0572793 62.725618,6.9183173 58.086469,9.4850729 54.535497,11.47421 50.889518,13.202419 47.178244,14.865484 33.695513,20.892544 26.088333,26.723018 18.849163,39.849898 c -1.238537,2.249276 -2.486418,4.490236 -3.786769,6.704372 -0.313369,0.53319 -0.626607,1.066369 -0.938758,1.600313 -0.459627,0.786901 -0.91934,1.574066 -1.380909,2.359852 -2.165955,3.622129 -3.9721682,7.100854 -4.877154,11.254908 -0.5140793,5.887308 1.053171,10.79317 4.78671,15.361609 0.267781,0.316576 0.527395,0.623899 0.787173,0.931212 1.747379,2.117456 3.623627,4.073632 5.57384,6.002618 1.12316,1.095176 2.234998,2.188218 3.270974,3.367285 1.61187,1.875845 3.284966,3.644715 5.0505,5.377057 2.509942,2.457207 4.994238,4.926818 7.304779,7.574446 0.226693,0.26455 0.446579,0.52115 0.666607,0.77794 1.175223,1.36532 2.289359,2.66653 3.001309,4.34116 -0.772962,0.98649 -1.594939,1.82528 -2.522316,2.66972 -2.913626,1.07345 -2.913534,1.07345 -6.077986,0.85926 -1.28089,-0.087 -2.325939,-0.17929 -3.545648,0.26464 -2.571938,1.77248 -4.357428,3.49556 -5.433181,6.49669 -0.372515,2.80409 -0.214493,5.2486 1.383436,7.65067 1.937523,2.2949 3.785233,4.16008 6.875184,4.51533 3.574135,0.0641 5.523986,-0.46904 8.171561,-2.84385 1.631331,-1.69197 2.386399,-3.25965 2.512245,-5.6258 0.03142,-1.56194 0.066,-3.0165 0.35176,-4.55385 0.970897,-1.30217 2.04639,-2.16294 3.430099,-3.00133 1.323562,0.90862 1.323649,0.90862 2.305406,2.20909 3.655407,4.84265 7.610199,9.4643 10.986105,14.51247 -0.532592,0.70585 -0.532592,0.70585 -1.286258,1.50065 -3.046197,1.81209 -3.046197,1.81209 -6.662508,1.6154 -2.610592,-0.15157 -3.713897,0.52721 -5.753103,2.09105 -1.80283,1.63729 -2.862512,3.44801 -3.178814,5.87534 -0.0772,3.36745 0.76757,5.62467 2.835503,8.26701 1.790456,1.90577 3.741576,2.60567 6.32752,2.70482 3.156099,-0.14982 5.623909,-1.14644 7.942077,-3.31116 1.413017,-1.64085 1.964074,-3.25772 1.857427,-5.42312 -0.100788,-1.36436 -0.170677,-2.53658 0.06176,-3.88726 1.117668,-1.30398 2.368991,-2.16181 3.858858,-3.00132 0,0.97821 0,0.9781 2.06341,3.55733 0.318751,0.39413 0.628369,0.77652 0.937878,1.15901 2.430605,3.08621 4.764625,6.05324 8.14641,8.14642 3.628138,2.03938 7.48784,2.33993 11.502774,1.28296 1.58803,-0.42175 3.067055,-0.537 4.707138,-0.54254 l 0.993165,0.009 c 1.839762,-0.0196 3.450151,0.009 5.232199,0.5059 0.389672,0.1557 0.767602,0.30748 1.145607,0.45882 17.924467,18.55831 -9.883575,-10.21788 12.181817,11.73149 0.75651,0.71367 0.75716,0.71324 1.3399,1.47804 0.32683,0.96015 0.45654,1.53392 0.30073,2.53573 -0.087,0.29182 -0.16983,0.57428 -0.25398,0.85741 -0.0935,0.33193 -0.18636,0.65365 -0.27823,0.97559 -3.93399,13.46173 -3.36943,26.3067 0.23126,39.79333 4.94056,16.69758 16.95631,31.50891 32.2021,39.86371 0.27595,0.14949 0.54439,0.29421 0.81229,0.43979 1.96188,1.0803 3.93536,2.11273 5.97335,3.04317 63.27127,20.05651 100.47644,-10.99143 96.29983,-72.11186 -0.0772,-0.42403 -0.15309,-0.8361 -0.22822,-1.24775 -2.07349,-11.77284 -6.21146,-22.68742 -13.5947,-32.20544 -0.33412,-0.42077 -0.65877,-0.82936 -0.9831,-1.23773 -1.66137,-2.13024 -3.26859,-4.29672 -5.33266,-6.0562 -0.84686,-0.67682 -1.65982,-1.3555 -2.45531,-2.09355 -6.77266,-6.33106 -14.87874,-11.05903 -23.65376,-14.05859 -0.5346,-0.17516 -1.05355,-0.34542 -1.57261,-0.5159 -9.7757,-3.35437 -20.72895,-3.85965 -30.95276,-2.72832 -1.08041,0.16624 -1.08041,0.16624 -2.06168,0.1557 -1.32752,-0.70976 -1.32791,-0.70976 -1.98895,-1.44379 -2.47386,-2.96572 -14.79854,-22.807061 -13.6733,-28.939589 0.4785,-2.587159 0.60049,-5.066167 0.42903,-7.691705 -1.13519,-6.442793 -7.14625,-11.517582 -12.52193,-15.076906 l -0.76967,-0.357642 c 0.40631,-1.219434 0.80207,-2.091497 1.72005,-3.001313 1.85621,-0.589673 1.85621,-0.589673 3.85378,-0.509118 1.52671,0.08752 2.71697,0.168883 4.18044,-0.286242 2.56307,-1.303871 4.67694,-3.343125 5.68103,-6.065432 0.35716,-3.429645 0.27181,-6.229381 -1.84737,-9.066741 -1.79721,-1.967246 -3.81099,-3.210351 -6.46972,-3.555644 -3.53384,-0.05958 -5.49829,0.523427 -8.11122,2.872309 -1.66606,1.723848 -2.42938,3.22523 -2.44862,5.655119 0.0631,1.52549 0.1283,3.000945 0.0141,4.523732 -0.82838,1.387993 -1.92945,1.902798 -3.43507,2.467044 -1.01441,0.22716 -1.01441,0.22716 -2.1656,-0.912817 -1.8124,-1.673884 -6.26607,-5.280171 -9.59376,-8.173197 -1.23126,-1.083706 -2.40839,-2.158282 -3.8471,-2.962755 -0.23159,-0.09546 -0.45665,-0.187377 -0.6816,-0.279468 0.49089,-0.982139 1.0317,-1.620312 1.79543,-2.411726 1.70041,-1.494062 2.90685,-1.625735 5.14509,-1.581078 2.70866,0.200012 4.12687,-0.05958 6.35013,-1.634626 1.97211,-1.772936 3.23368,-3.410592 3.65283,-6.083044 0.13852,-2.989303 -0.0794,-5.251391 -1.98971,-7.622171 -2.46664,-2.50751 -4.22287,-3.541981 -7.82649,-3.57913 -3.28006,0.117891 -4.84564,0.921362 -7.12813,3.188896 -1.98631,2.090195 -2.29443,3.973312 -2.22418,6.80656 0.0533,1.017181 0.087,2.036232 0.0794,3.054866 -0.82218,0.858117 -0.82229,0.858117 -1.69156,1.50404 -0.31791,0.235706 -0.62604,0.464551 -0.93449,0.693386 -0.55275,0.411364 -1.10643,0.822628 -1.6609,1.232675 -4.87712,-4.819727 -10.48573,-9.565437 -14.148597,-15.434487 0.300756,-0.364448 0.592456,-0.718165 0.884253,-1.071903 2.27203,-1.253878 2.27203,-1.253878 4.930718,-1.152284 1.061796,0.05665 2.125636,0.08622 3.188926,0.08046 2.43129,-0.7343 4.32651,-2.179134 5.71789,-4.30689 1.37367,-2.752251 1.56833,-5.438224 0.87432,-8.4228103 -1.38521,-2.3294085 -3.16748,-4.391684 -5.53484,-5.7548341 l -0.003,-0.00251 C 101.94336,2.5096524 100.59926,2.2618272 99.277151,2.2601861 Z M 68.209811,23.120766 c 0.305236,0.0066 0.624889,0.02892 0.972289,0.06197 l 8.53e-4,8.36e-4 c 1.748142,1.017106 2.987448,2.073344 4.275834,3.617606 2.155668,2.497869 4.525723,4.785158 6.871887,7.101345 5.05118,4.98647 5.05095,4.986022 7.352509,7.681637 1.604917,1.805541 3.333559,3.496427 5.044635,5.200363 0.651538,0.649255 1.301297,1.300223 1.950337,1.952021 2.28933,2.291085 4.61608,4.510732 7.090435,6.603086 0.48423,0.417223 0.96834,0.834936 1.45207,1.252762 0.47158,0.404589 0.94337,0.808667 1.41527,1.212572 0.25595,0.219397 0.51246,0.438903 0.77625,0.664965 2.63504,2.254686 5.28315,4.494343 7.93284,6.731147 3.61569,3.052285 7.21777,6.119657 10.80776,9.202427 1.04974,0.90077 2.10112,1.799583 3.15289,2.698141 0.51297,0.439795 1.02442,0.882177 1.53415,1.325642 1.05725,0.91809 2.10456,1.795059 3.2383,2.619444 0.91405,0.678698 1.62767,1.226793 2.27609,2.16221 0.18559,1.515148 -0.10438,2.809544 -0.42849,4.287624 -1.35133,9.248305 13.6128,36.963276 13.26962,37.138016 -11.89974,7.62365 -5.82313,8.91702 -23.10424,-7.79453 -0.16342,-0.5346 -0.16385,-0.53395 -0.33097,-1.07942 -0.97842,-3.25416 -1.79799,-6.54367 -2.6002,-9.84472 -0.52058,-2.13083 -1.08989,-4.2463 -1.67817,-6.359335 -0.087,-0.313401 -0.17341,-0.627574 -0.26268,-0.950511 -0.37434,-1.334705 -0.76923,-2.655019 -1.20756,-3.970178 -0.41489,-1.244637 -0.60516,-1.983181 -0.37836,-3.279335 0.69269,-0.875219 1.40872,-1.732471 2.14379,-2.572568 1.23833,-2.510475 1.35513,-5.556446 0.58288,-8.245198 -0.30345,-0.697387 -0.65453,-1.373591 -1.01169,-2.044981 l -0.42903,-1.286269 c -0.7813,-0.480176 -0.7813,-0.480176 -1.71507,-0.857518 -0.29389,-0.15127 -0.5881,-0.302942 -0.8909,-0.458898 -2.847,-1.382428 -5.03823,-1.739953 -8.13988,-0.827362 -2.35566,0.970999 -3.87143,2.972859 -5.18867,5.089829 -0.94795,2.414303 -0.79539,5.354112 0.12724,7.743591 1.41632,2.495182 2.95255,4.198301 5.75645,5.097367 1.0467,0.505834 1.0467,0.505834 1.55592,1.319815 1.56329,4.765213 2.85493,9.688881 3.77843,14.621301 -2.25788,-1.86452 -4.26237,-3.8499 -6.24379,-6.00262 -2.24344,-2.41345 -4.5161,-4.785579 -6.86015,-7.101311 -2.439135,-2.412056 -15.535396,-16.449235 -19.052948,-19.910444 -2.147633,-2.11164 -4.216641,-4.242193 -6.176788,-6.52939 -0.944238,-1.050109 -2.004851,-1.949354 -3.068318,-2.876506 -1.875845,-1.856064 -1.875845,-1.856064 -1.984661,-3.135331 0.242878,-0.937871 0.242878,-0.937871 0.592855,-1.885861 0.913211,-2.655932 0.638117,-5.792209 -0.50245,-8.338998 -1.917747,-3.578381 -4.206833,-5.585169 -8.154803,-6.81829 -3.581364,-0.474605 -6.861861,-0.439299 -9.861455,1.715047 l -1.152295,0.750293 c -2.780914,2.705783 -3.788029,5.708897 -4.153602,9.48628 0.09437,3.201976 1.730849,6.817702 4.019628,9.057528 3.620013,2.894706 7.168862,2.950194 11.576509,2.572569 0.35039,-0.102963 0.700671,-0.206372 1.061836,-0.312488 1.081536,-0.116521 1.082123,-0.116521 1.946958,0.449754 9.27423,10.078145 19.248847,19.520569 28.301462,29.795375 1.471705,1.631963 3.060142,3.153783 4.64094,4.679503 1.799622,1.76336 3.321322,3.63813 4.780032,5.69111 -1.95102,-0.17708 -3.89567,-0.39283 -5.841862,-0.61629 -0.550987,-0.0493 -1.102087,-0.0986 -1.669813,-0.14988 -4.020621,-0.48958 -4.020621,-0.49007 -5.413089,-1.84234 -0.631945,-0.96433 -1.136297,-1.93687 -1.653044,-2.96534 -2.271981,-2.10969 -3.914105,-2.70233 -7.020941,-2.73331 -0.551579,-0.014 -1.103204,-0.0229 -1.671474,-0.0358 -2.294377,0.28354 -3.904666,1.38623 -5.349429,3.17213 -1.992647,2.7122 -2.273193,5.30527 -1.822238,8.60117 0.904651,2.57856 2.243446,4.29485 4.635987,5.62743 2.97656,1.25027 5.311218,1.16686 8.333975,0.10655 1.456818,-0.61702 2.215042,-1.10422 3.054911,-2.43856 1.125474,-1.15232 1.125286,-1.15232 2.134581,-1.20589 0.609559,0.0674 0.609875,0.0674 1.231848,0.13417 0.460778,0.0489 0.921264,0.10112 1.395989,0.15167 2.655384,0.34771 5.297949,0.74923 7.939559,1.18829 0.54719,0.0848 1.09425,0.17211 1.65807,0.26061 16.70901,16.5584 19.90873,15.47533 9.15296,26.40084 -3.45448,-0.24387 -25.432344,-11.7385 -28.819094,-10.93137 -2.105538,0.46393 -2.105538,0.46393 -3.43005,0 -1.430758,-1.32965 -2.585217,-2.83591 -3.739946,-4.40275 -0.526124,-0.71311 -1.063606,-1.41428 -1.60785,-2.11364 -0.715987,-0.92097 -1.426961,-1.8454 -2.133717,-2.77354 -1.101131,-1.44295 -2.22091,-2.87127 -3.344667,-4.29678 -1.803412,-2.28951 -3.597834,-4.58538 -5.386268,-6.88612 -0.251028,-0.32243 -0.501856,-0.64568 -0.760343,-0.97805 -1.302381,-1.67544 -2.603232,-3.35181 -3.90236,-5.02956 -4.207839,-5.43066 -8.539839,-10.737945 -12.99593,-15.966217 -0.381515,-0.455112 -0.381515,-0.455112 -0.77039,-0.919474 -1.791035,-2.106486 -3.736148,-4.045177 -5.712004,-5.976471 -1.239709,-1.219663 -2.418777,-2.465513 -3.553999,-3.783469 -1.571685,-1.818818 -3.25553,-3.502754 -4.970938,-5.185285 -7.528566,-7.384526 -7.528745,-7.384665 -7.960513,-10.105969 0.106551,-2.528101 1.537415,-4.471399 2.842191,-6.562041 0.551011,-0.910729 1.102254,-1.82193 1.652237,-2.733318 0.431227,-0.708031 0.430771,-0.708031 0.870946,-1.430311 0.88882,-1.477623 1.752164,-2.966814 2.605173,-4.465114 0.21134,-0.370776 0.212221,-0.371168 0.428063,-0.749511 0.679069,-1.19179 1.35643,-2.384679 2.032436,-3.578285 0.734299,-1.28234 1.483724,-2.552747 2.245969,-3.818647 0.227585,-0.386486 0.456158,-0.773364 0.690864,-1.171525 3.473387,-5.469666 9.918066,-7.583064 15.575988,-10.217363 1.136209,-0.53232 2.271931,-1.065727 3.407474,-1.599482 0.731103,-0.3433 1.462763,-0.685384 2.194854,-1.026673 2.397324,-1.121116 4.747736,-2.302916 7.070341,-3.572432 0.977855,-0.382725 1.758347,-0.502301 2.673853,-0.48235 z m -8.538307,30.549039 c 0.780519,-0.02685 1.652197,0.111118 2.651276,0.384312 1.204398,0.755067 1.431615,1.243145 2.143781,2.572529 0.177038,1.861714 -0.110671,3.328636 -1.071914,4.930757 -1.586354,0.951891 -3.092202,1.157248 -4.930702,1.071867 -1.280443,-0.517579 -1.886001,-0.942556 -2.706546,-2.036606 -0.435322,-1.4252 -0.474009,-2.481178 -0.294887,-3.966031 1.216231,-2.025528 2.491698,-2.895333 4.208872,-2.956928 z M 177.92671,139.70384 c 9.87494,0.0348 19.72784,3.16125 27.77886,9.66717 h 8.7e-4 c 0.73596,0.6393 1.46853,1.28219 2.19738,1.9294 0.32356,0.26246 0.64778,0.52503 0.98135,0.79565 8.03622,6.65903 13.60792,17.17843 14.88263,27.50248 0.14623,2.21527 0.18874,4.42611 0.18744,6.64576 l 7.9e-4,0.91613 c -0.0152,5.02889 -0.52329,9.58413 -2.33224,14.30479 -0.11264,0.30193 -0.22506,0.60473 -0.34085,0.91601 -2.47575,6.50857 -6.43611,12.62551 -11.57565,17.37309 -0.66475,0.633 -0.66486,0.63311 -0.73183,2.04999 0.0696,1.56601 0.0696,1.56601 1.15233,2.51899 2.53815,1.52291 4.67973,2.05614 7.63642,1.58104 2.41084,-0.94461 4.6053,-2.24001 6.80657,-3.59086 1.44541,-0.75151 2.3079,-0.85317 3.91242,-0.69671 -2.02367,3.38128 -4.58303,6.17069 -7.28889,9.00396 -0.31737,0.34009 -0.63453,0.67975 -0.96135,1.02996 -2.47795,2.58888 -4.22949,4.14765 -7.90941,4.31609 -4.92642,0.0728 -8.2634,-1.22477 -12.02448,-4.39478 -2.06062,-2.01795 -3.38659,-4.27135 -4.40151,-6.9539 -0.32139,4.43161 0.13819,8.15482 2.9444,11.7423 2.16607,2.27986 4.56401,4.16143 7.77459,4.55052 -1.31749,1.43541 -2.86767,2.0685 -4.63511,2.81372 -0.29976,0.13014 -0.59962,0.26007 -0.90862,0.39478 -5.31744,2.28325 -5.31761,2.28325 -8.1757,1.50816 -5.11168,-2.58348 -8.29565,-7.17228 -10.29021,-12.43396 -0.98821,-3.07994 -1.64127,-6.24021 -2.14377,-9.43272 -0.23386,0.44066 -0.46752,0.881 -0.70845,1.33485 -4.00393,7.41152 -8.88775,13.97274 -17.32959,16.51053 -5.65875,1.39138 -11.9319,1.55177 -17.02469,-1.47717 -0.4561,-0.30791 -0.91199,-0.61571 -1.38178,-0.93297 -0.24474,-0.15863 -0.48949,-0.31672 -0.74184,-0.4798 -3.97663,-2.57916 -7.44776,-5.65104 -10.83452,-8.95286 -0.24159,-0.22973 -0.48307,-0.45925 -0.73183,-0.69595 -0.63028,-0.60886 -1.23745,-1.24111 -1.84066,-1.87667 v -0.85741 c 4.48527,-0.61169 7.42529,0.87687 11.21725,2.99378 1.07779,0.59691 2.17666,1.14798 3.28015,1.69574 0.32107,0.16309 0.64224,0.32618 0.97309,0.49405 2.82756,1.3418 6.33498,1.24305 9.33887,0.5259 4.04979,-1.51793 7.11554,-3.95414 9.06255,-7.85334 0.7016,-1.97791 1.28625,-3.89518 1.28625,-6.00262 -0.1608,0.22757 -0.32139,0.45535 -0.48719,0.68987 -2.35753,3.25423 -4.98468,5.5779 -9.0442,6.35268 -3.72191,0.23071 -6.52695,-1.66363 -9.23757,-4.01206 -8.71792,-7.89985 -14.96573,-19.09401 -15.58186,-31.00962 -1.20049,-30.70032 21.98173,-50.59883 47.2497,-50.50393 z m -8.16901,48.90609 c -0.5882,0.0217 -1.16745,0.13961 -1.73092,0.42121 0.91112,0.69584 0.91112,0.69584 1.71498,1.71501 0.13482,1.34856 0.18027,2.21208 -0.42903,3.43008 -0.73074,0.17614 -0.73074,0.17614 -1.44704,0.34847 -1.51613,0.25029 -1.51613,0.25029 -2.3314,-0.53602 -0.17298,-0.22756 -0.34085,-0.44892 -0.50905,-0.66996 h -0.85741 l -0.0152,0.7988 -0.0152,1.05007 -0.0152,1.04007 c 0.0772,1.78601 0.69628,2.63904 1.94453,3.83702 1.73619,1.47457 2.99573,1.7824 5.24555,1.59949 2.18715,-0.39283 3.22599,-1.02083 4.58906,-2.77856 0.97864,-1.92903 0.98767,-3.86362 0.69682,-5.97581 -0.77369,-1.97742 -1.99138,-2.89054 -3.85883,-3.85881 -0.99995,-0.21734 -2.00509,-0.45577 -2.98536,-0.4212 z m 30.65795,0.33412 c -0.48492,0.0152 -0.98701,0.0478 -1.5183,0.0881 0.66268,0.78359 0.66268,0.78359 1.28633,1.71502 0.10655,1.33425 0.17342,2.22559 -0.42903,3.43009 -0.99538,0.17483 -1.99665,0.31911 -3.00128,0.42903 l -1.28627,-1.71502 -0.8574,0.85741 c -0.0772,1.2093 -0.15211,2.24228 0,3.4301 0.78021,1.93584 2.04239,3.26999 3.85884,4.28757 2.26112,0.36663 4.37124,0.23072 6.4046,-0.88437 1.7135,-1.60945 2.49554,-3.50832 2.8137,-5.81502 -0.34052,-2.29775 -1.36138,-3.50568 -3.05487,-5.03791 -1.46181,-0.70389 -2.76157,-0.82914 -4.21642,-0.7838 z m 29.28196,47.34772 c -1.6376,-1.57175 -1.6376,-1.57178 -1.67147,-2.7183 0.54961,-0.97603 1.17627,-1.69098 1.95622,-2.49717 2.21018,-2.39434 2.00932,7.31562 -0.28475,5.21547 z m -51.38065,1.18913 c 1.05453,1.33077 1.86294,2.72055 2.67971,4.20716 1.14915,2.00653 2.32836,3.56642 4.05817,5.09485 0.55102,0.5595 0.55102,0.5595 0.55102,1.41693 -2.53713,0.59876 -5.08815,0.50862 -7.6783,0.5083 -0.88242,8.3e-4 -1.76463,0.007 -2.64708,0.0196 -3.63457,0.0152 -7.11007,-0.27845 -10.68382,-0.95385 v -0.85741 c 0.31661,-0.11503 0.63344,-0.22974 0.95972,-0.34814 3.37179,-1.3024 6.07876,-2.9822 8.90173,-5.22546 0.37793,-0.29345 0.75608,-0.58701 1.14551,-0.88927 1.07715,-0.89089 1.87652,-1.85379 2.71325,-2.96943 z m 46.86028,3.56571 c 0.40011,0.43305 -0.96744,-1.06106 0,0 z"
     id="path1" />
</svg>
